,
Brought to you by  http://www.scenetime.com/signup.php
 
 Hottest scene tracker on the net !!!   
 
No fake torrents from scenebalance 
shame on those who comment fake before downloading my torrents

    seed back for speed


 



...................................NFO:.................................................General 
Complete name : Pirates 2 Stagnettis Revenge 2008 DVDRip Xvid AC3-Freebee.avi 
Format : AVI 
Format/Info : Audio Video Interleave 
File size : 1.32 GiB 
Duration : 1h 32mn 
Overall bit rate : 2 050 Kbps 

Video 
ID : 0 
Format : MPEG-4 Visual 
Format profile : Advanced Simple@L5 
Format settings, BVOP : 2 
Format settings, QPel : No 
Format settings, GMC : No warppoints 
Format settings, Matrix : Default (MPEG) 
Codec ID : XVID 
Codec ID/Hint : XviD 
Duration : 1h 32mn 
Bit rate : 1 593 Kbps 
Width : 720 pixels 
Height : 400 pixels 
Display aspect ratio : 16:9 
Frame rate : 23.976 fps 
Color space : YUV 
Chroma subsampling : 4:2:0 
Bit depth : 8 bits 
Scan type : Progressive 
Compression mode : Lossy 
Bits/(Pixel*Frame) : 0.231 
Stream size : 1.03 GiB (78%) 

Audio 
ID : 1 
Format : AC-3 
Format/Info : Audio Coding 3 
Mode extension : CM (complete main) 
Codec ID : 2000 
Duration : 1h 32mn 
Bit rate mode : Constant 
Bit rate : 448 Kbps 
Channel(s) : 6 channels 
Channel positions : Front: L C R, Side: L R, LFE 
Sampling rate : 48.0 KHz 
Bit depth : 16 bits 
Compression mode : Lossy 
Stream size : 296 MiB (22%) 
Alignment : Split accross interleaves 
Interleave, duration : 42 ms (1.00 video frame) 
Interleave, preload duration : 500 ms 


   
              Language.............: English
              Subtitle.............: Spanish
              Imdb-Rating..........: 7.8/10
              Imdb.................: http://www.imdb.com/title/tt1266097/
              Video-Source.........: DVD
              Audio-Source.........: DVD
              Encoder..............: Freebee269
              Plot.................: Pirate hunter Captain Edward Reynolds
 and his blond first mate, Jules Steel, return where they are recruited
 by a shady governor general to find a darkly sinister Chinese empress
 pirate, named Xifing, and her group of Arab cutthroats, whom are trying
 to resurrect the late Victor Stagnetti, the world's most feared pirate,
 from the grave to bring on world domination. When Jules is captured and
 enslaved by the Xifing, Reynolds must rely on his sword-fighting ally,
 Olivia, to take on the supernatural forces at work surrounding the
 lethal Xifing. 

              Director.............: Joone
              Writer...............: Joone (story), Max Massimo (screenplay)
              Stars................: Jesse Jane, Evan Stone and Belladonna
   
                    
                    Sample Included
                    


                    
                    Greets: All P2P Groups!
                    

 
                                          
                           Respects                  
                    
                     SANTi, TOXiCiNK, LKRG 
                    NPW, FLAWL3SS, BDK, CM8
                      IMAGiNE, ViSiON, Rx  
                          Legion, *THC*